<?xml version="1.0" encoding="UTF-8" standalone="no"?>
<!DOCTYPE svg PUBLIC "-//W3C//DTD SVG 1.1//EN" "http://www.w3.org/Graphics/SVG/1.1/DTD/svg11.dtd">
<svg width="100%" height="100%" viewBox="0 0 1080 1080" version="1.1" xmlns="http://www.w3.org/2000/svg" xmlns:xlink="http://www.w3.org/1999/xlink" xml:space="preserve" xmlns:serif="http://www.serif.com/" style="fill-rule:evenodd;clip-rule:evenodd;stroke-linejoin:round;stroke-miterlimit:2;">
    <g transform="matrix(4.16667,0,0,4.16667,0,-320.492)">
        <path d="M149.513,104.68C151.317,108.786 152.554,113.208 153.089,117.765C154.555,128.964 151.747,140.463 146.685,150.605C141.674,160.529 134.46,168.863 126.308,175.327C118.276,182.081 108.367,185.81 101.628,190.187C94.517,194.785 88.852,200.938 86.583,208.473C84.283,215.965 85.289,224.353 88.388,231.438C83.683,225.303 80.505,216.759 81.62,207.45C82.671,198.084 88.706,189.277 96.348,183.098C104.461,176.626 112.484,173.054 119.111,166.752C125.894,160.739 131.798,153.453 135.969,145.19C142.409,133.107 143.785,119.333 139.729,107.848L149.513,104.68Z" style="fill:rgb(0,101,164);fill-rule:nonzero;"/>
    </g>
    <g transform="matrix(4.16667,0,0,4.16667,0,-333.396)">
        <path d="M112.786,105.625C111.014,125.729 114.945,151.211 130.374,174.747C138.64,186.747 148.231,194.82 153.12,205.12C157.935,214.53 160.528,226.902 151.029,233.59C163.489,229.712 165.559,213.714 161.6,202.321C158.162,189.951 147.827,179.373 140.976,169.204C126.844,147.676 118.652,124.876 112.786,105.625" style="fill:rgb(255,210,0);fill-rule:nonzero;"/>
    </g>
    <g transform="matrix(4.16667,0,0,4.16667,0,-779.813)">
        <path d="M99.154,246.196C95.062,227.608 95.655,217.264 104.627,203.506L94.637,200.159C88.509,214.97 90.455,229.525 99.154,246.196" style="fill:rgb(0,101,164);fill-rule:nonzero;"/>
    </g>
    <g transform="matrix(-0.660515,-4.11398,-4.11398,0.660515,1316.2,821.744)">
        <path d="M131.533,125.039C109.132,125.04 90.972,143.2 90.973,165.597C90.973,188.001 109.134,206.155 131.533,206.156C153.932,206.158 172.093,187.995 172.092,165.594C172.091,143.195 153.935,125.038 131.533,125.039" style="fill:rgb(245,246,246);fill-rule:nonzero;"/>
    </g>
    <g transform="matrix(4.16667,0,0,4.16667,0,-19.2958)">
        <path d="M108.678,125.02C106.033,126.958 108.125,130.362 110.106,132.678C116.375,136.581 123.72,138.798 131.435,138.811C122.117,137.247 114.131,132.287 108.678,125.02" style="fill:rgb(181,17,26);fill-rule:nonzero;"/>
    </g>
    <g transform="matrix(4.16667,0,0,4.16667,0,-31.8958)">
        <path d="M157.493,132.441C139.32,139.197 122.003,125.363 112.344,126.782C111.871,126.85 111.458,126.94 111.065,127.036C117.014,135.453 126.148,140.844 136.702,141.492C137.122,141.439 137.544,141.391 137.968,141.324C145.428,140.125 152.081,136.958 157.493,132.441" style="fill:rgb(181,17,26);fill-rule:nonzero;"/>
    </g>
    <g transform="matrix(4.16667,0,0,4.16667,0,-474.075)">
        <path d="M100.911,205.754C101.007,205.765 101.101,205.765 101.195,205.771C102.726,189.762 112.571,175.118 126.196,167.207C125.833,167.257 125.47,167.294 125.109,167.351C109.844,169.8 97.947,180.475 93.207,194.121C91.613,204.247 100.911,205.754 100.911,205.754" style="fill:rgb(238,49,35);fill-rule:nonzero;"/>
    </g>
    <g transform="matrix(4.16667,0,0,4.16667,0,-478.404)">
        <path d="M103.938,206.73C120.07,204.68 126.166,175.138 152.127,173.495C145.07,169.333 136.726,167.287 128.067,168.04C114.758,175.578 105.16,190.409 103.938,206.73" style="fill:rgb(238,49,35);fill-rule:nonzero;"/>
    </g>
    <g transform="matrix(4.16667,0,0,4.16667,0,-144.908)">
        <path d="M105.635,142.864C106.41,145.458 107.401,147.914 108.619,150.196C121.056,148.861 146.601,171.673 168.586,144.88C171.644,138.029 172.83,130.26 171.62,122.305C161.688,132.946 143.419,141.007 122.088,142.807C116.412,143.286 110.896,143.283 105.635,142.864" style="fill:rgb(181,17,26);fill-rule:nonzero;"/>
    </g>
    <g transform="matrix(4.16667,0,0,4.16667,0,-381.396)">
        <path d="M170.181,172.957C168.795,168.587 166.715,164.527 164.137,161.014C132.461,153.337 122.071,188.546 103.816,187.455C103.817,187.741 103.806,188.03 103.817,188.319C103.907,191.411 104.321,194.375 104.986,197.199C109.579,197.398 114.35,197.282 119.234,196.797C142.12,194.526 161.321,184.985 170.181,172.957" style="fill:rgb(238,49,35);fill-rule:nonzero;"/>
    </g>
    <g transform="matrix(4.16667,0,0,4.16667,0,-112.183)">
        <path d="M93.157,133.643C95.852,141.567 100.867,148.256 107.293,153.05C104.795,150.474 100.548,145.124 105.893,143.007C104.48,140.447 103.373,137.663 102.553,134.714C99.228,134.34 96.033,133.78 92.975,133.074C93.037,133.262 93.093,133.454 93.157,133.643" style="fill:rgb(181,17,26);fill-rule:nonzero;"/>
    </g>
    <g transform="matrix(4.16667,0,0,4.16667,0,-281.108)">
        <path d="M100.985,164.818C100.972,164.19 100.979,163.562 100.99,162.935C100.72,162.863 100.447,162.791 100.176,162.705C94.392,160.889 92.059,157.546 91.648,153.72C90.827,158.158 90.736,162.806 91.49,167.515C91.719,168.941 92.03,170.328 92.402,171.693C95.469,172.273 98.664,172.695 101.972,172.946C101.403,170.35 101.051,167.642 100.985,164.818" style="fill:rgb(238,49,35);fill-rule:nonzero;"/>
    </g>
    <g transform="matrix(4.16667,0,0,4.16667,0,-277.71)">
        <path d="M111.432,229.961C119.899,221.44 123.09,211.988 125.982,202.607C128.968,190.089 128.145,177.286 123.309,165.831C112.256,143.73 90.916,125.601 89.313,95.889C88.329,111.578 93.135,122.736 98.174,134.968C100.904,140.849 103.868,146.629 107.219,152.213C110.358,157.572 112.626,162.097 114.041,167.425C116.968,177.778 116.22,188.798 112.418,199.166C109.638,206.627 104.662,214.561 98.749,219.924L111.432,229.961Z" style="fill:rgb(255,210,0);fill-rule:nonzero;"/>
    </g>
    <g transform="matrix(4.16667,0,0,4.16667,0,-207.429)">
        <path d="M156.436,191.746C154.426,195.534 150.495,199.425 146.812,199.205C143.581,198.947 141.669,195.169 141.427,191.094C141.466,183.642 146.291,172.182 151.117,163.031C161.644,143.229 171.828,121.537 166.911,103.645C164,120.817 150.902,137.736 140.138,158.262C134.79,169.466 130.512,179.361 132.614,192.424C133.909,197.961 139.401,205.338 147.58,203.807C154.64,201.613 155.959,195.836 156.436,191.746" style="fill:rgb(0,101,164);fill-rule:nonzero;"/>
    </g>
    <g transform="matrix(4.16667,0,0,4.16667,0,-361.229)">
        <path d="M184.532,175.028C184.532,174.968 184.518,174.908 184.51,174.847C184.499,174.721 184.489,174.594 184.458,174.468C184.442,174.405 184.412,174.344 184.392,174.283C184.351,174.157 184.311,174.032 184.248,173.906C184.218,173.844 184.171,173.781 184.136,173.719C184.064,173.593 183.997,173.469 183.904,173.344C183.857,173.277 183.791,173.211 183.737,173.146C183.638,173.024 183.541,172.903 183.424,172.782C183.354,172.711 183.264,172.639 183.187,172.567C183.063,172.452 182.946,172.337 182.805,172.223C182.702,172.139 182.577,172.056 182.465,171.975C182.327,171.872 182.196,171.768 182.043,171.665C181.882,171.558 181.695,171.45 181.516,171.342C181.39,171.266 181.276,171.188 181.139,171.111C180.812,170.927 180.464,170.743 180.088,170.56C179.745,170.393 179.381,170.229 179.005,170.067C178.899,170.023 178.792,169.979 178.686,169.934C178.526,169.867 178.355,169.801 178.19,169.734C178.065,169.685 177.944,169.636 177.817,169.587C177.668,169.53 177.524,169.475 177.375,169.421C177.089,169.316 176.798,169.213 176.5,169.11C176.367,169.062 176.234,169.016 176.096,168.97C175.831,168.881 175.553,168.796 175.278,168.71C175.162,168.674 175.05,168.636 174.932,168.6C174.844,168.572 174.76,168.546 174.668,168.517C174.646,168.511 174.622,168.504 174.6,168.498C174.131,168.358 173.65,168.22 173.154,168.084C173.038,168.054 172.922,168.024 172.806,167.993C172.408,167.887 172.003,167.782 171.588,167.68C171.408,167.635 171.225,167.593 171.041,167.548C171.023,167.544 171.008,167.541 170.991,167.536C170.667,167.459 170.339,167.382 170.007,167.306C170.8,169.692 171.389,172.179 171.732,174.754C172.078,174.842 172.415,174.928 172.747,175.016C172.896,175.055 173.049,175.095 173.195,175.136C173.696,175.272 174.18,175.409 174.652,175.549C174.77,175.587 174.879,175.624 174.993,175.659C175.35,175.769 175.7,175.878 176.037,175.989C176.205,176.046 176.367,176.101 176.531,176.158C176.809,176.254 177.085,176.35 177.349,176.451C177.513,176.51 177.671,176.569 177.83,176.63C178.1,176.735 178.36,176.838 178.615,176.945C178.747,177 178.88,177.052 179.01,177.109C179.381,177.269 179.745,177.433 180.083,177.597C180.757,177.925 181.339,178.255 181.855,178.589C183.622,177.447 184.552,176.246 184.532,175.028" style="fill:rgb(181,17,26);fill-rule:nonzero;"/>
    </g>
    <g transform="matrix(4.16667,0,0,4.16667,0,-364.7)">
        <path d="M91.582,167.667C91.285,167.727 90.989,167.789 90.698,167.85C90.422,167.907 90.151,167.967 89.884,168.026C89.543,168.101 89.209,168.177 88.88,168.254C88.635,168.311 88.393,168.368 88.154,168.427C87.773,168.519 87.399,168.613 87.034,168.708C86.956,168.729 86.875,168.75 86.796,168.771C86.689,168.798 86.583,168.827 86.479,168.856C86.037,168.974 85.599,169.094 85.182,169.216C85.16,169.222 85.138,169.229 85.118,169.235C84.681,169.363 84.261,169.493 83.852,169.625C83.746,169.659 83.642,169.692 83.537,169.726C83.147,169.855 82.771,169.983 82.406,170.113C82.314,170.146 82.224,170.18 82.132,170.213C81.793,170.338 81.465,170.463 81.148,170.591C81.113,170.604 81.076,170.62 81.041,170.634C80.997,170.651 80.952,170.67 80.908,170.689C80.562,170.83 80.229,170.972 79.914,171.115C79.906,171.119 79.897,171.124 79.888,171.129C79.836,171.152 79.786,171.177 79.735,171.202C79.46,171.33 79.195,171.459 78.944,171.588C78.882,171.62 78.823,171.651 78.762,171.684C78.519,171.812 78.292,171.941 78.071,172.071C78.018,172.102 77.964,172.133 77.913,172.163C77.889,172.178 77.867,172.193 77.843,172.207C77.601,172.357 77.366,172.508 77.152,172.66C77.15,172.66 77.148,172.663 77.145,172.664C77.126,172.68 77.106,172.694 77.084,172.71C76.894,172.847 76.719,172.987 76.553,173.125C76.544,173.134 76.533,173.142 76.524,173.15C76.474,173.192 76.428,173.235 76.378,173.276C76.218,173.419 76.067,173.564 75.931,173.708C75.923,173.719 75.912,173.729 75.903,173.74C75.888,173.758 75.872,173.776 75.855,173.793C75.72,173.946 75.597,174.099 75.49,174.253C75.481,174.266 75.47,174.278 75.461,174.291C75.461,174.294 75.459,174.295 75.459,174.296C75.352,174.455 75.264,174.616 75.19,174.776C75.17,174.818 75.151,174.861 75.133,174.902C75.076,175.044 75.028,175.186 74.995,175.328C74.986,175.354 74.98,175.383 74.973,175.409C74.709,176.732 75.551,178.082 77.596,179.4C77.631,179.378 77.661,179.355 77.697,179.333C77.76,179.291 77.825,179.253 77.893,179.213C78.031,179.127 78.173,179.045 78.32,178.959C78.385,178.924 78.451,178.885 78.521,178.85C78.687,178.756 78.863,178.666 79.044,178.574C79.092,178.546 79.14,178.521 79.193,178.496C79.431,178.377 79.678,178.259 79.932,178.144C79.98,178.121 80.028,178.101 80.078,178.08C80.286,177.986 80.499,177.892 80.722,177.8C80.822,177.758 80.925,177.719 81.025,177.677C81.198,177.607 81.373,177.538 81.553,177.467C81.689,177.415 81.824,177.365 81.964,177.312C82.132,177.251 82.301,177.187 82.476,177.126C82.612,177.078 82.743,177.03 82.88,176.981C83.075,176.916 83.276,176.85 83.48,176.783C83.62,176.737 83.762,176.689 83.906,176.643C84.112,176.577 84.322,176.514 84.536,176.448C84.694,176.4 84.851,176.352 85.015,176.304C85.201,176.247 85.392,176.194 85.582,176.14C85.79,176.08 85.998,176.021 86.212,175.962C86.422,175.905 86.634,175.851 86.846,175.792C87.069,175.735 87.295,175.676 87.524,175.619C87.697,175.575 87.87,175.531 88.047,175.49C88.388,175.405 88.737,175.324 89.086,175.243C89.256,175.203 89.425,175.164 89.6,175.125C90.013,175.031 90.433,174.941 90.86,174.851C90.967,174.829 91.07,174.805 91.179,174.782C91.269,174.763 91.367,174.745 91.457,174.727C91.853,172.182 92.483,169.707 93.333,167.328C93.191,167.354 93.052,167.381 92.912,167.407C92.461,167.492 92.017,167.58 91.582,167.667" style="fill:rgb(181,17,26);fill-rule:nonzero;"/>
    </g>
    <g transform="matrix(4.16667,0,0,4.16667,0,-253.092)">
        <path d="M133.371,170.822L133.388,170.822C134.655,170.807 135.921,170.783 137.192,170.753C137.249,170.75 137.306,170.75 137.364,170.748C137.413,170.748 137.465,170.746 137.518,170.743C138.949,170.707 140.379,170.658 141.809,170.599C141.864,170.599 141.918,170.597 141.973,170.595C142.063,170.59 142.153,170.586 142.243,170.582C143.299,170.538 144.351,170.486 145.402,170.429C145.532,170.424 145.665,170.415 145.799,170.407C146.895,170.347 147.991,170.282 149.085,170.208C149.135,170.203 149.19,170.201 149.242,170.197C149.273,170.194 149.303,170.192 149.334,170.19C150.351,170.12 151.364,170.046 152.372,169.965C152.475,169.956 152.578,169.947 152.68,169.941C153.761,169.853 154.835,169.757 155.904,169.657C156.764,169.576 157.609,169.49 158.447,169.403C158.759,169.368 159.063,169.335 159.373,169.3C159.886,169.245 160.395,169.186 160.899,169.129C161.037,169.112 161.178,169.099 161.314,169.081C161.544,169.055 161.767,169.024 161.994,168.998C162.431,168.943 162.867,168.889 163.296,168.834C163.625,168.79 163.958,168.749 164.286,168.703C164.757,168.64 165.219,168.576 165.678,168.51C165.964,168.471 166.25,168.43 166.533,168.388C167.047,168.313 167.549,168.237 168.049,168.158C168.272,168.123 168.497,168.088 168.718,168.056C169.368,167.95 170.009,167.846 170.637,167.738C170.693,167.727 170.752,167.719 170.809,167.708C170.818,167.708 170.826,167.705 170.836,167.703C171.001,167.675 171.163,167.644 171.328,167.616C171.762,167.54 172.196,167.461 172.622,167.382C172.797,167.349 172.97,167.316 173.143,167.283C173.543,167.207 173.939,167.13 174.329,167.051C174.51,167.014 174.694,166.977 174.873,166.942C175.267,166.861 175.652,166.78 176.036,166.697C176.192,166.664 176.35,166.631 176.503,166.596C176.511,166.595 176.52,166.595 176.531,166.592C176.571,166.584 176.607,166.574 176.646,166.563C177.248,166.432 177.833,166.299 178.407,166.161C178.605,166.115 178.799,166.067 178.99,166.019C179.436,165.91 179.875,165.8 180.302,165.689C180.402,165.664 180.507,165.638 180.604,165.615C180.698,165.59 180.787,165.564 180.881,165.538C181.186,165.457 181.478,165.376 181.772,165.295C182.01,165.23 182.247,165.162 182.48,165.096C182.754,165.015 183.023,164.934 183.29,164.855C183.436,164.812 183.588,164.768 183.731,164.724C183.802,164.7 183.87,164.678 183.939,164.656C184.165,164.586 184.384,164.514 184.605,164.444C184.819,164.374 185.037,164.304 185.25,164.232C185.458,164.162 185.661,164.092 185.867,164.02C185.995,163.974 186.134,163.928 186.263,163.884C186.355,163.849 186.44,163.816 186.534,163.782C186.696,163.722 186.86,163.661 187.019,163.602C187.245,163.517 187.463,163.433 187.678,163.346C187.833,163.287 187.988,163.224 188.137,163.165C188.218,163.132 188.299,163.101 188.38,163.068C188.524,163.007 188.66,162.946 188.802,162.884C188.922,162.834 189.047,162.781 189.163,162.729C189.395,162.626 189.613,162.524 189.834,162.423C189.935,162.373 190.042,162.327 190.143,162.278C190.154,162.272 190.167,162.267 190.176,162.264C190.462,162.124 190.74,161.983 191.005,161.843C191.088,161.8 191.164,161.756 191.248,161.71C191.401,161.627 191.556,161.544 191.705,161.461C191.744,161.439 191.776,161.417 191.816,161.395C191.915,161.336 192.011,161.279 192.109,161.218C192.265,161.123 192.415,161.032 192.564,160.938C192.661,160.874 192.754,160.813 192.849,160.75C192.895,160.719 192.945,160.688 192.991,160.658C193.087,160.59 193.174,160.525 193.268,160.457C193.345,160.402 193.423,160.347 193.498,160.29C193.695,160.142 193.885,159.993 194.063,159.842C194.064,159.84 194.064,159.84 194.067,159.838C194.106,159.805 194.141,159.77 194.179,159.735C194.319,159.614 194.449,159.494 194.572,159.372C194.643,159.304 194.706,159.234 194.771,159.164C194.821,159.113 194.877,159.059 194.924,159.006C194.953,158.974 194.976,158.941 195.006,158.91C195.069,158.836 195.13,158.766 195.187,158.692C195.263,158.595 195.336,158.499 195.404,158.4C195.45,158.337 195.495,158.272 195.537,158.208C195.55,158.186 195.567,158.166 195.579,158.145C195.634,158.062 195.675,157.976 195.721,157.891C195.751,157.834 195.789,157.777 195.815,157.72C195.889,157.563 195.957,157.405 196.011,157.248C196.011,157.246 196.011,157.241 196.014,157.239C196.033,157.18 196.045,157.119 196.06,157.06C196.092,156.95 196.123,156.841 196.142,156.727C196.156,156.662 196.158,156.594 196.167,156.528C196.176,156.447 196.191,156.364 196.195,156.283L196.195,156.154C196.195,153.501 196.198,151.771 196.198,149.118C196.198,149.255 196.182,149.391 196.164,149.528C196.156,149.579 196.156,149.629 196.147,149.68C196.147,149.688 196.142,149.696 196.14,149.703C196.129,149.767 196.11,149.831 196.095,149.894C196.077,149.962 196.064,150.03 196.045,150.097C196.033,150.128 196.029,150.161 196.019,150.192C196,150.245 195.974,150.297 195.953,150.351C195.926,150.421 195.897,150.492 195.867,150.562C195.847,150.605 195.835,150.647 195.815,150.691C195.793,150.734 195.762,150.778 195.74,150.822C195.701,150.895 195.655,150.969 195.613,151.042C195.569,151.113 195.528,151.185 195.48,151.257C195.457,151.288 195.436,151.321 195.414,151.353C195.34,151.456 195.263,151.56 195.18,151.666C195.152,151.703 195.119,151.74 195.088,151.777C195.025,151.854 194.955,151.931 194.885,152.006C194.837,152.059 194.791,152.112 194.741,152.164C194.688,152.217 194.638,152.272 194.583,152.326C194.544,152.365 194.498,152.405 194.456,152.443C194.381,152.514 194.308,152.584 194.229,152.656C194.209,152.673 194.19,152.692 194.17,152.709C194.135,152.74 194.104,152.768 194.069,152.801C193.932,152.919 193.779,153.037 193.623,153.156C193.566,153.2 193.513,153.244 193.455,153.287C193.404,153.325 193.349,153.361 193.299,153.398C193.146,153.507 192.993,153.617 192.831,153.726C192.77,153.768 192.707,153.81 192.641,153.851C192.549,153.911 192.448,153.971 192.352,154.032C192.262,154.088 192.175,154.145 192.079,154.201C192,154.249 191.919,154.297 191.836,154.345C191.768,154.385 191.694,154.425 191.621,154.464C191.508,154.529 191.396,154.593 191.278,154.657C191.246,154.674 191.215,154.693 191.181,154.711C191.125,154.739 191.077,154.768 191.022,154.798C190.801,154.915 190.565,155.031 190.329,155.147C190.265,155.179 190.206,155.211 190.141,155.242C190.132,155.246 190.123,155.251 190.115,155.255C190.068,155.277 190.018,155.299 189.974,155.32C189.708,155.445 189.437,155.572 189.152,155.697C189.075,155.731 188.997,155.766 188.916,155.8C188.806,155.848 188.69,155.895 188.578,155.943C188.426,156.008 188.275,156.072 188.117,156.137C187.988,156.189 187.857,156.242 187.726,156.292C187.649,156.322 187.568,156.352 187.492,156.383C187.356,156.435 187.225,156.488 187.087,156.539C187.054,156.552 187.023,156.564 186.991,156.576C186.842,156.631 186.691,156.688 186.54,156.745C186.322,156.824 186.101,156.902 185.876,156.979C185.864,156.983 185.853,156.987 185.842,156.99C185.685,157.045 185.53,157.099 185.37,157.154C185.333,157.166 185.298,157.179 185.26,157.191C185.042,157.265 184.815,157.338 184.587,157.414C184.397,157.473 184.205,157.537 184.007,157.598C183.808,157.659 183.608,157.72 183.404,157.781C183.376,157.79 183.347,157.799 183.318,157.808C183.027,157.895 182.737,157.983 182.437,158.068C182.389,158.082 182.338,158.097 182.289,158.11C182,158.193 181.706,158.275 181.409,158.357C181.238,158.403 181.072,158.45 180.899,158.497C180.694,158.551 180.484,158.604 180.274,158.659C180.271,158.66 180.267,158.661 180.265,158.661C179.922,158.749 179.573,158.837 179.22,158.924C179.152,158.941 179.086,158.959 179.016,158.976C178.811,159.026 178.609,159.077 178.401,159.124C178.325,159.143 178.244,159.161 178.168,159.179C177.822,159.26 177.473,159.34 177.12,159.419C176.999,159.447 176.881,159.476 176.758,159.503C176.665,159.525 176.575,159.544 176.479,159.566C176.373,159.588 176.264,159.61 176.159,159.634C175.982,159.672 175.8,159.71 175.621,159.748C175.461,159.782 175.302,159.816 175.14,159.848C175.037,159.87 174.936,159.892 174.832,159.914C174.689,159.943 174.541,159.971 174.397,160.002C173.963,160.087 173.526,160.174 173.081,160.257C173.062,160.261 173.042,160.265 173.023,160.268C172.946,160.284 172.87,160.298 172.793,160.312C172.752,160.32 172.71,160.329 172.666,160.336C172.189,160.424 171.708,160.511 171.218,160.599C171.102,160.618 170.986,160.64 170.866,160.662C170.77,160.679 170.667,160.695 170.568,160.712C170.255,160.765 169.932,160.816 169.613,160.869C169.326,160.917 169.041,160.966 168.751,161.012C168.494,161.053 168.233,161.093 167.974,161.134C167.738,161.171 167.5,161.207 167.261,161.243C167.031,161.278 166.804,161.313 166.572,161.347C166.255,161.39 165.938,161.437 165.618,161.483C165.558,161.491 165.492,161.5 165.428,161.509C165.076,161.558 164.72,161.607 164.361,161.655C164.35,161.656 164.339,161.659 164.328,161.659C163.976,161.705 163.621,161.754 163.262,161.8C163.099,161.82 162.931,161.841 162.764,161.863C162.338,161.917 161.913,161.969 161.48,162.022C161.284,162.045 161.089,162.069 160.887,162.093C160.513,162.135 160.133,162.178 159.75,162.221C159.376,162.262 159.004,162.305 158.623,162.345C158.571,162.351 158.521,162.356 158.468,162.362C157.626,162.451 156.773,162.537 155.909,162.62C154.796,162.725 153.674,162.822 152.549,162.913C152.47,162.92 152.392,162.926 152.313,162.933C151.654,162.985 150.992,163.032 150.329,163.08C150.043,163.101 149.758,163.124 149.47,163.144C149.428,163.147 149.386,163.15 149.345,163.154C149.255,163.158 149.17,163.165 149.08,163.171C148.778,163.191 148.474,163.207 148.17,163.226C147.387,163.276 146.604,163.325 145.818,163.369C145.799,163.37 145.777,163.371 145.758,163.373C145.659,163.379 145.558,163.385 145.458,163.39C145.198,163.404 144.938,163.414 144.677,163.427C143.907,163.466 143.139,163.504 142.369,163.538C142.297,163.54 142.226,163.544 142.153,163.547C142.059,163.554 141.965,163.556 141.87,163.561C141.68,163.568 141.488,163.571 141.298,163.579C140.156,163.624 139.014,163.662 137.872,163.693C137.754,163.696 137.636,163.702 137.518,163.705C137.41,163.709 137.303,163.711 137.199,163.714C137.15,163.715 137.102,163.715 137.057,163.716C134.646,163.775 132.238,163.805 129.84,163.805L129.394,163.805C129.062,163.804 128.731,163.8 128.401,163.799C127.747,163.795 127.093,163.792 126.443,163.785C126.354,163.784 126.264,163.784 126.175,163.784C126.065,163.782 125.955,163.779 125.846,163.779C125.534,163.776 125.22,163.767 124.908,163.761C124.313,163.751 123.716,163.742 123.123,163.728C122.926,163.725 122.725,163.722 122.528,163.718C122.439,163.714 122.351,163.714 122.261,163.711C121.984,163.704 121.705,163.693 121.426,163.684C120.704,163.664 119.982,163.64 119.264,163.615C119.083,163.608 118.901,163.604 118.722,163.597L118.685,163.597C118.501,163.591 118.322,163.58 118.138,163.574C117.279,163.54 116.425,163.5 115.575,163.46C115.446,163.453 115.316,163.449 115.19,163.442C115.095,163.44 115.001,163.433 114.908,163.429C114.84,163.426 114.772,163.42 114.702,163.417C113.84,163.373 112.983,163.323 112.129,163.271C111.93,163.258 111.727,163.25 111.528,163.237C111.473,163.233 111.415,163.229 111.358,163.224C110.204,163.152 109.061,163.071 107.928,162.984C107.792,162.974 107.659,162.963 107.519,162.952C107.254,162.932 106.995,162.907 106.731,162.886C106.04,162.829 105.351,162.772 104.668,162.711C104.555,162.7 104.436,162.692 104.323,162.681C104.238,162.673 104.152,162.666 104.065,162.655C103.96,162.645 103.857,162.633 103.752,162.623C102.814,162.536 101.884,162.443 100.963,162.344C100.834,162.33 100.701,162.319 100.569,162.305C100.458,162.293 100.351,162.278 100.239,162.266C99.257,162.158 98.288,162.046 97.33,161.927C97.264,161.92 97.197,161.913 97.131,161.904C96.958,161.885 96.783,161.863 96.61,161.841C96.597,161.839 96.582,161.838 96.569,161.836C96.446,161.82 96.326,161.804 96.203,161.788C95.823,161.738 95.444,161.69 95.07,161.64C94.959,161.627 94.852,161.609 94.742,161.594C94.552,161.568 94.366,161.541 94.176,161.514C93.926,161.479 93.679,161.445 93.432,161.409C93.419,161.407 93.406,161.406 93.393,161.404C93.22,161.38 93.047,161.355 92.874,161.329C92.411,161.262 91.951,161.191 91.497,161.12C91.409,161.105 91.319,161.092 91.23,161.078C91.11,161.06 90.991,161.041 90.871,161.021C90.401,160.947 89.933,160.869 89.467,160.791C89.314,160.767 89.165,160.741 89.014,160.715C88.957,160.705 88.9,160.694 88.843,160.684C88.537,160.631 88.235,160.577 87.931,160.522C87.684,160.478 87.432,160.437 87.188,160.391C87.085,160.371 86.986,160.354 86.886,160.334C86.748,160.308 86.614,160.282 86.476,160.255C86.217,160.206 85.958,160.157 85.7,160.107C85.621,160.091 85.538,160.076 85.46,160.061C85.262,160.021 85.066,159.984 84.873,159.945C84.657,159.901 84.447,159.854 84.232,159.809C83.9,159.74 83.571,159.671 83.246,159.602C83.097,159.569 82.94,159.538 82.791,159.505C82.703,159.483 82.611,159.466 82.522,159.446C82.31,159.398 82.108,159.348 81.897,159.299C81.564,159.223 81.236,159.146 80.909,159.067C80.698,159.019 80.479,158.969 80.271,158.919C80.267,158.917 80.26,158.914 80.253,158.912C80.068,158.868 79.89,158.818 79.707,158.772C79.418,158.698 79.127,158.625 78.842,158.549C78.801,158.538 78.757,158.527 78.713,158.517C78.611,158.49 78.508,158.464 78.407,158.436C78.106,158.355 77.812,158.272 77.517,158.188C77.359,158.143 77.195,158.1 77.04,158.055C77.014,158.048 76.986,158.041 76.96,158.033C76.881,158.009 76.802,157.987 76.723,157.963C76.273,157.83 75.829,157.696 75.398,157.56C75.349,157.545 75.304,157.532 75.256,157.519C74.8,157.373 74.359,157.226 73.921,157.075C73.838,157.046 73.755,157.018 73.672,156.989C73.619,156.971 73.571,156.952 73.519,156.934C73.363,156.879 73.215,156.824 73.062,156.769C72.843,156.69 72.62,156.613 72.408,156.532C72.37,156.517 72.331,156.502 72.296,156.489C72.169,156.44 72.051,156.39 71.928,156.342C71.756,156.275 71.585,156.207 71.419,156.139C71.335,156.106 71.25,156.073 71.17,156.041C71.108,156.014 71.047,155.99 70.985,155.964C70.789,155.883 70.605,155.798 70.417,155.714C70.271,155.651 70.122,155.588 69.982,155.524C69.953,155.511 69.925,155.499 69.896,155.487C69.826,155.454 69.759,155.424 69.688,155.391C69.333,155.224 68.986,155.056 68.656,154.885C68.202,154.651 67.777,154.415 67.381,154.179C67.241,154.095 67.123,154.009 66.992,153.925C66.749,153.772 66.5,153.619 66.281,153.465C66.152,153.372 66.045,153.28 65.922,153.187C65.73,153.041 65.529,152.894 65.356,152.746C65.244,152.65 65.157,152.554 65.054,152.458C64.898,152.313 64.737,152.169 64.603,152.024C64.511,151.926 64.444,151.827 64.363,151.73C64.245,151.587 64.117,151.444 64.019,151.3C63.949,151.2 63.901,151.098 63.842,150.997C63.759,150.856 63.667,150.716 63.604,150.577C63.555,150.471 63.527,150.364 63.49,150.258C63.442,150.124 63.385,149.989 63.352,149.855C63.326,149.743 63.324,149.63 63.309,149.519C63.291,149.391 63.267,149.262 63.265,149.135C63.265,149.123 63.26,149.11 63.26,149.098C63.26,151.751 63.258,153.481 63.258,156.137C63.258,158.068 64.988,160.033 68.652,161.922C68.985,162.095 69.333,162.264 69.688,162.428C69.757,162.46 69.822,162.493 69.89,162.524C70.242,162.685 70.605,162.843 70.982,163.002C71.043,163.026 71.106,163.053 71.17,163.079C71.528,163.228 71.896,163.374 72.277,163.519C72.322,163.537 72.366,163.554 72.412,163.571C72.812,163.722 73.228,163.873 73.65,164.022C73.746,164.055 73.842,164.088 73.939,164.121C74.361,164.265 74.794,164.409 75.236,164.551C75.304,164.571 75.373,164.593 75.444,164.615C75.848,164.741 76.264,164.866 76.688,164.991C76.782,165.019 76.878,165.048 76.975,165.076C77.436,165.21 77.909,165.341 78.394,165.47C78.502,165.5 78.613,165.53 78.723,165.557C79.939,165.881 81.209,166.192 82.535,166.487C82.603,166.502 82.673,166.516 82.741,166.531C83.458,166.691 84.193,166.846 84.939,166.995C84.974,167.003 85.007,167.012 85.042,167.016C85.127,167.034 85.212,167.051 85.297,167.067C85.862,167.18 86.433,167.29 87.012,167.397C87.056,167.406 87.098,167.414 87.141,167.421C87.76,167.535 88.393,167.646 89.029,167.756C89.101,167.767 89.169,167.78 89.239,167.793C89.309,167.804 89.382,167.815 89.449,167.828C89.996,167.92 90.547,168.01 91.107,168.099C91.203,168.115 91.306,168.13 91.405,168.145C91.888,168.22 92.38,168.294 92.874,168.366C92.967,168.379 93.054,168.395 93.145,168.408C93.229,168.419 93.312,168.43 93.393,168.443C93.841,168.506 94.289,168.569 94.742,168.63C94.852,168.646 94.957,168.663 95.064,168.679C95.576,168.747 96.094,168.815 96.615,168.88C96.711,168.893 96.803,168.904 96.899,168.917C96.971,168.926 97.05,168.933 97.122,168.943C99.364,169.221 101.676,169.473 104.043,169.694C104.089,169.696 104.13,169.703 104.172,169.705C104.227,169.711 104.283,169.713 104.338,169.72C105.395,169.816 106.46,169.906 107.538,169.991C107.617,169.998 107.696,170.006 107.779,170.013C107.827,170.017 107.875,170.02 107.923,170.022C109.05,170.109 110.185,170.188 111.326,170.262C111.353,170.264 111.379,170.267 111.403,170.269C111.447,170.271 111.489,170.271 111.53,170.276C112.646,170.345 113.77,170.411 114.903,170.468C114.953,170.47 115.001,170.473 115.054,170.477C115.097,170.479 115.146,170.481 115.19,170.481C116.347,170.54 117.513,170.59 118.68,170.634C118.692,170.634 118.698,170.636 118.707,170.636L118.72,170.636C119.892,170.683 121.074,170.717 122.259,170.748C122.29,170.748 122.325,170.75 122.358,170.753C122.412,170.753 122.467,170.754 122.524,170.754C123.626,170.781 124.733,170.803 125.844,170.816C125.899,170.818 125.949,170.82 126.004,170.82C126.061,170.822 126.118,170.822 126.172,170.822C127.242,170.833 128.318,170.842 129.392,170.842C129.475,170.842 129.558,170.844 129.643,170.844L129.805,170.844C130.993,170.844 132.181,170.838 133.371,170.822Z" style="fill:white;fill-rule:nonzero;"/>
    </g>
    <g transform="matrix(4.16667,0,0,4.16667,0,-334.613)">
        <path d="M63.308,169.084C63.324,169.195 63.326,169.308 63.352,169.42C63.385,169.554 63.442,169.689 63.49,169.823C63.527,169.929 63.555,170.036 63.604,170.142C63.667,170.282 63.759,170.421 63.842,170.561C63.901,170.663 63.949,170.764 64.019,170.865C64.118,171.008 64.245,171.152 64.362,171.295C64.444,171.392 64.511,171.491 64.603,171.589C64.737,171.734 64.898,171.878 65.054,172.022C65.156,172.118 65.244,172.215 65.356,172.311C65.528,172.459 65.73,172.605 65.922,172.752C66.045,172.845 66.152,172.937 66.281,173.03C66.5,173.184 66.749,173.337 66.992,173.49C67.123,173.575 67.241,173.66 67.381,173.744C67.777,173.98 68.201,174.216 68.656,174.45C69.077,174.667 69.52,174.879 69.982,175.089C70.122,175.152 70.271,175.216 70.417,175.279C70.743,175.423 71.074,175.564 71.419,175.704C71.585,175.772 71.756,175.84 71.929,175.907C72.296,176.052 72.674,176.193 73.062,176.334C73.215,176.389 73.363,176.444 73.519,176.499C74.621,176.887 75.796,177.261 77.041,177.62C77.196,177.665 77.36,177.709 77.517,177.753C77.953,177.876 78.394,177.996 78.843,178.114C79.127,178.19 79.418,178.263 79.706,178.337C80.103,178.437 80.503,178.536 80.91,178.633C81.236,178.711 81.564,178.788 81.896,178.864C82.343,178.966 82.791,179.068 83.246,179.166C83.572,179.237 83.9,179.305 84.232,179.374C84.716,179.475 85.203,179.574 85.7,179.671C85.958,179.722 86.216,179.771 86.477,179.82C86.956,179.911 87.441,179.999 87.931,180.087C88.235,180.142 88.537,180.196 88.843,180.249C89.51,180.365 90.186,180.478 90.871,180.586C90.992,180.605 91.109,180.625 91.23,180.644C91.954,180.758 92.691,180.867 93.433,180.974C93.679,181.01 93.927,181.044 94.176,181.079C94.845,181.173 95.519,181.264 96.203,181.353C96.326,181.369 96.446,181.385 96.569,181.401C96.818,181.432 97.076,181.462 97.33,181.492C98.288,181.611 99.257,181.723 100.239,181.832C100.48,181.858 100.722,181.883 100.963,181.909C101.884,182.008 102.814,182.1 103.752,182.188C104.058,182.217 104.362,182.247 104.668,182.275C105.351,182.337 106.04,182.394 106.732,182.45C107.132,182.483 107.525,182.518 107.928,182.549C109.061,182.636 110.205,182.716 111.358,182.79C111.613,182.806 111.874,182.82 112.13,182.835C112.983,182.888 113.84,182.937 114.702,182.982C114.99,182.998 115.284,183.011 115.574,183.025C116.426,183.065 117.278,183.105 118.138,183.139C118.512,183.153 118.888,183.167 119.265,183.18C119.982,183.206 120.704,183.229 121.426,183.249C121.99,183.265 122.556,183.281 123.123,183.294C123.716,183.307 124.313,183.317 124.908,183.327C125.42,183.336 125.929,183.344 126.444,183.351C127.093,183.357 127.747,183.361 128.401,183.364C128.88,183.366 129.359,183.37 129.84,183.37C132.238,183.37 134.646,183.34 137.056,183.281C137.327,183.274 137.601,183.265 137.872,183.258C139.014,183.227 140.156,183.189 141.298,183.144C141.654,183.131 142.013,183.118 142.37,183.102C143.139,183.068 143.906,183.031 144.677,182.992C145.058,182.972 145.438,182.955 145.819,182.934C146.604,182.89 147.387,182.841 148.17,182.791C148.603,182.764 149.039,182.739 149.47,182.71C149.758,182.689 150.043,182.666 150.329,182.645C151.071,182.591 151.81,182.538 152.549,182.478C153.673,182.387 154.795,182.29 155.909,182.185C156.83,182.098 157.731,182.006 158.623,181.91C159.004,181.87 159.375,181.827 159.749,181.786C160.332,181.72 160.911,181.654 161.48,181.587C161.913,181.534 162.338,181.482 162.764,181.428C163.302,181.359 163.836,181.291 164.361,181.22C164.72,181.173 165.076,181.123 165.428,181.074C166.047,180.986 166.66,180.899 167.261,180.808C167.499,180.772 167.738,180.736 167.974,180.7C168.53,180.613 169.072,180.524 169.612,180.434C169.932,180.382 170.255,180.33 170.568,180.276C171.324,180.146 172.067,180.014 172.793,179.877C172.87,179.863 172.946,179.849 173.023,179.833C173.744,179.697 174.449,179.557 175.14,179.413C175.302,179.381 175.461,179.347 175.621,179.313C176.131,179.206 176.627,179.095 177.119,178.985C177.474,178.905 177.821,178.825 178.167,178.744C178.524,178.66 178.873,178.575 179.219,178.489C179.574,178.402 179.921,178.315 180.265,178.226C180.652,178.125 181.033,178.025 181.409,177.921C181.706,177.84 181.999,177.757 182.288,177.676C182.666,177.566 183.041,177.457 183.404,177.346C183.607,177.285 183.808,177.224 184.008,177.162C184.473,177.016 184.929,176.868 185.37,176.719C185.53,176.664 185.685,176.611 185.842,176.556C186.269,176.407 186.685,176.256 187.087,176.104C187.225,176.053 187.356,176 187.492,175.948C187.864,175.802 188.227,175.655 188.579,175.508C188.691,175.459 188.806,175.413 188.916,175.365C189.34,175.181 189.751,174.995 190.141,174.807C190.206,174.776 190.266,174.744 190.329,174.712C190.659,174.55 190.977,174.387 191.278,174.222C191.396,174.158 191.508,174.094 191.621,174.029C191.875,173.886 192.121,173.742 192.352,173.596C192.448,173.536 192.549,173.476 192.641,173.416C192.927,173.23 193.201,173.042 193.454,172.853C193.514,172.809 193.566,172.765 193.623,172.721C193.837,172.555 194.041,172.388 194.229,172.22C194.308,172.149 194.382,172.079 194.456,172.008C194.609,171.863 194.751,171.717 194.885,171.571C194.955,171.495 195.025,171.419 195.089,171.342C195.232,171.17 195.364,170.996 195.48,170.821C195.528,170.751 195.57,170.678 195.613,170.607C195.708,170.447 195.795,170.288 195.868,170.127C195.897,170.057 195.926,169.986 195.953,169.916C196.011,169.764 196.057,169.611 196.095,169.459C196.11,169.395 196.129,169.332 196.141,169.268C196.528,167.149 194.839,164.977 190.806,162.897C185.827,160.327 177.931,158.231 168.344,156.719C168.972,158.078 169.527,159.479 170.006,160.918C170.339,160.994 170.667,161.071 170.991,161.148C171.189,161.196 171.393,161.244 171.588,161.292C172.003,161.394 172.408,161.499 172.806,161.605C172.922,161.636 173.04,161.666 173.154,161.696C173.651,161.832 174.132,161.97 174.599,162.11C174.831,162.18 175.052,162.251 175.278,162.322C175.554,162.408 175.831,162.493 176.096,162.582C176.839,162.829 177.531,163.085 178.189,163.346C178.355,163.413 178.526,163.479 178.686,163.546C178.793,163.59 178.902,163.634 179.004,163.679C179.382,163.841 179.744,164.005 180.088,164.172C180.464,164.355 180.811,164.539 181.139,164.723C181.275,164.8 181.389,164.878 181.516,164.954C181.696,165.061 181.882,165.17 182.043,165.277C182.196,165.38 182.327,165.484 182.466,165.587C182.577,165.668 182.702,165.751 182.804,165.835C182.946,165.949 183.063,166.064 183.187,166.179C183.263,166.251 183.353,166.323 183.424,166.394C183.542,166.515 183.638,166.636 183.736,166.758C183.791,166.823 183.856,166.89 183.905,166.956C183.997,167.081 184.064,167.205 184.137,167.331C184.171,167.393 184.217,167.456 184.248,167.518C184.311,167.644 184.351,167.769 184.392,167.895C184.412,167.956 184.443,168.017 184.458,168.08C184.489,168.206 184.5,168.333 184.511,168.459C184.517,168.52 184.533,168.58 184.533,168.64C184.552,169.858 183.622,171.059 181.855,172.201C177.155,175.235 166.455,177.845 151.315,179.199C123.506,181.686 91.295,178.987 79.374,173.175C78.698,172.846 78.114,172.513 77.596,172.179C75.551,170.861 74.709,169.511 74.974,168.188C74.98,168.16 74.988,168.135 74.995,168.107C75.028,167.965 75.076,167.823 75.133,167.682C75.151,167.64 75.168,167.598 75.19,167.555C75.264,167.395 75.351,167.234 75.459,167.075C75.468,167.06 75.481,167.046 75.49,167.032C75.597,166.878 75.719,166.725 75.855,166.573C75.881,166.544 75.905,166.516 75.932,166.488C76.067,166.343 76.218,166.199 76.378,166.056C76.435,166.005 76.494,165.955 76.552,165.905C76.719,165.766 76.894,165.627 77.084,165.489C77.108,165.473 77.13,165.455 77.152,165.439C77.366,165.287 77.601,165.136 77.843,164.986C77.918,164.94 77.994,164.895 78.071,164.85C78.292,164.72 78.519,164.591 78.762,164.463C78.821,164.43 78.882,164.399 78.944,164.367C79.195,164.238 79.46,164.109 79.735,163.981C79.796,163.952 79.851,163.924 79.914,163.895C80.23,163.751 80.562,163.609 80.908,163.468C80.986,163.435 81.067,163.402 81.148,163.369C81.465,163.243 81.794,163.117 82.132,162.992C82.224,162.959 82.314,162.926 82.406,162.892C82.771,162.763 83.147,162.633 83.537,162.505C83.64,162.472 83.747,162.438 83.852,162.404C84.261,162.272 84.681,162.142 85.118,162.014C85.138,162.008 85.16,162.001 85.181,161.995C85.599,161.873 86.037,161.753 86.479,161.635C86.662,161.585 86.848,161.536 87.034,161.487C87.399,161.392 87.773,161.298 88.155,161.206C88.393,161.148 88.635,161.091 88.88,161.034C89.209,160.957 89.543,160.88 89.884,160.805C90.151,160.746 90.422,160.687 90.698,160.629C90.989,160.567 91.284,160.506 91.582,160.446C92.017,160.358 92.461,160.272 92.912,160.187C93.051,160.159 93.191,160.133 93.334,160.107C93.819,158.75 94.384,157.427 95.009,156.137C74.938,158.844 63.21,163.664 63.265,168.7C63.267,168.828 63.291,168.956 63.308,169.084" style="fill:rgb(238,49,35);fill-rule:nonzero;"/>
    </g>
    <g transform="matrix(4.16667,0,0,4.16667,0,513.166)">
        <path d="M94.734,93.697C92.892,94.333 89.281,94.973 84.818,94.973C71.784,94.973 63.002,87.89 63.002,71.669L63.002,64.372C63.002,48.152 71.784,41.068 84.818,41.068C89.281,41.068 92.892,41.706 94.734,42.343C95.866,42.697 96.293,42.909 96.293,43.903L96.293,52.969C96.293,53.891 95.866,54.313 95.018,54.313L94.806,54.313C91.901,54.032 88.927,53.677 84.888,53.677C81.063,53.677 77.594,55.377 77.594,64.372L77.594,71.669C77.594,80.593 80.993,82.364 84.888,82.364C88.927,82.364 91.901,82.01 94.806,81.726L95.018,81.726C95.866,81.726 96.293,82.153 96.293,83.073L96.293,92.139C96.293,93.059 95.866,93.343 94.734,93.697" style="fill:rgb(238,49,35);fill-rule:nonzero;"/>
    </g>
    <g transform="matrix(4.16667,0,0,4.16667,0,510.502)">
        <path d="M124.269,54.457C124.127,53.821 124.127,53.466 123.491,53.466C122.852,53.466 122.852,53.821 122.709,54.457L119.241,72.45L127.741,72.45L124.269,54.457ZM145.519,94.972L133.193,94.972C132.485,94.972 131.918,94.336 131.776,93.628L129.795,83.783L117.187,83.783L115.203,93.628C115.06,94.336 114.494,94.972 113.785,94.972L101.532,94.972C100.824,94.972 100.329,94.479 100.329,93.84C100.329,93.698 100.399,93.628 100.399,93.486L109.89,50.137C111.449,43.124 116.76,41.707 123.491,41.707C130.219,41.707 135.532,43.124 137.089,50.137L146.58,93.486C146.58,93.628 146.652,93.77 146.652,93.84C146.652,94.55 146.228,94.972 145.519,94.972" style="fill:rgb(238,49,35);fill-rule:nonzero;"/>
    </g>
    <g transform="matrix(4.16667,0,0,4.16667,0,512.874)">
        <path d="M179.869,77.618C179.869,74.784 178.311,72.517 173.635,72.517L166.765,72.517L166.765,83.356L172.574,83.356C178.097,83.356 179.869,81.302 179.869,78.254L179.869,77.618ZM179.584,57.29C179.584,54.526 177.885,52.756 172.36,52.756C171.793,52.756 167.261,52.827 166.765,52.827L166.765,62.885L173.635,62.885C178.311,62.885 179.584,60.901 179.584,58.422L179.584,57.29ZM170.66,95.042C167.049,95.042 160.391,94.759 157.062,94.192C153.733,93.625 152.599,92.635 152.599,88.808L152.599,47.23C152.599,43.406 153.733,42.414 156.989,41.918C159.964,41.423 166.907,41.068 170.448,41.068C184.403,41.068 193.47,44.328 193.47,56.226L193.47,57.431C193.47,61.893 191.201,65.717 188.015,67.489C191.201,69.331 193.752,73.226 193.752,77.759L193.752,78.68C193.752,92.349 181.993,95.042 170.66,95.042" style="fill:rgb(238,49,35);fill-rule:nonzero;"/>
    </g>
    <g transform="matrix(4.16667,0,0,4.16667,0,880.649)">
        <path d="M79.972,34.639L78.558,34.639C78.241,34.639 77.981,34.378 77.981,34.061L77.981,16.956C77.981,16.897 77.981,16.869 77.952,16.869C77.924,16.869 77.924,16.869 77.896,16.928L73.77,25.465C73.482,26.042 73.193,26.303 72.471,26.303L71.146,26.303C70.424,26.303 70.135,26.042 69.846,25.465L65.723,16.928C65.693,16.869 65.693,16.869 65.664,16.869C65.635,16.869 65.635,16.897 65.635,16.956L65.635,34.061C65.635,34.378 65.375,34.639 65.058,34.639L63.645,34.639C63.328,34.639 63.068,34.378 63.068,34.061L63.068,14.043C63.068,13.581 63.444,13.206 63.905,13.206L65.78,13.206C66.299,13.206 66.531,13.322 66.703,13.697L71.463,23.59C71.579,23.851 71.664,23.908 71.808,23.908C71.952,23.908 72.04,23.851 72.154,23.59L76.913,13.697C77.086,13.322 77.318,13.206 77.837,13.206L79.713,13.206C80.175,13.206 80.549,13.581 80.549,14.043L80.549,34.061C80.549,34.378 80.289,34.639 79.972,34.639" style="fill:rgb(238,49,35);fill-rule:nonzero;"/>
    </g>
    <g transform="matrix(4.16667,0,0,4.16667,0,903.842)">
        <path d="M99.017,21.399L96.882,21.399C93.393,21.399 92.469,22.178 92.469,24.225L92.469,24.571C92.469,26.649 93.45,27.199 95.123,27.199C96.451,27.199 97.632,26.793 99.017,26.043L99.017,21.399ZM100.978,29.072L99.651,29.072C99.334,29.072 99.075,28.812 99.075,28.495L99.075,27.861C97.691,28.667 96.247,29.273 94.633,29.273C92.181,29.273 89.93,28.206 89.93,24.601L89.93,24.254C89.93,21.139 91.748,19.582 96.882,19.582L99.017,19.582L99.017,18.429C99.017,16.005 98.181,15.168 95.93,15.168C94.056,15.168 92.671,15.283 91.518,15.4L91.374,15.4C91.114,15.4 90.853,15.312 90.853,14.938L90.853,13.927C90.853,13.61 91.057,13.437 91.459,13.381C92.643,13.177 93.968,13.005 95.93,13.005C99.94,13.005 101.556,15.023 101.556,18.429L101.556,28.495C101.556,28.812 101.296,29.072 100.978,29.072" style="fill:rgb(238,49,35);fill-rule:nonzero;"/>
    </g>
    <g transform="matrix(4.16667,0,0,4.16667,0,880.411)">
        <path d="M120.397,21.051C119.446,20.879 117.945,20.85 117.022,20.85C114.196,20.85 113.274,22.609 113.274,25.696L113.274,27.773C113.274,30.916 114.166,32.676 117.022,32.676C118.002,32.676 119.417,32.59 120.397,32.502L120.397,21.051ZM122.329,34.408C120.542,34.753 118.781,34.897 117.022,34.897C112.724,34.897 110.734,32.099 110.734,27.773L110.734,25.696C110.734,21.167 112.812,18.628 117.022,18.628C117.917,18.628 119.273,18.715 120.397,18.916L120.397,13.551C120.397,13.263 120.627,13.005 120.945,13.005L122.417,13.005C122.705,13.005 122.935,13.234 122.935,13.551L122.935,33.745C122.935,34.118 122.849,34.319 122.329,34.408" style="fill:rgb(238,49,35);fill-rule:nonzero;"/>
    </g>
    <g transform="matrix(4.16667,0,0,4.16667,0,903.842)">
        <path d="M142.297,19.754C142.297,16.495 141.057,15.226 138.519,15.226C136.039,15.226 134.654,16.64 134.654,19.754L134.654,20.015L142.297,20.015L142.297,19.754ZM144.317,21.946L134.654,21.946L134.654,22.35C134.654,25.783 136.009,27.053 138.664,27.053C140.338,27.053 142.469,26.939 143.798,26.736L143.942,26.736C144.172,26.736 144.404,26.85 144.404,27.139L144.404,28.121C144.404,28.495 144.288,28.696 143.826,28.784C142.183,29.101 140.595,29.273 138.664,29.273C135.346,29.273 132.115,27.716 132.115,22.35L132.115,19.754C132.115,15.629 134.394,13.005 138.519,13.005C142.73,13.005 144.865,15.66 144.865,19.754L144.865,21.312C144.865,21.687 144.664,21.946 144.317,21.946" style="fill:rgb(238,49,35);fill-rule:nonzero;"/>
    </g>
    <g transform="matrix(4.16667,0,0,4.16667,0,878.85)">
        <path d="M156.379,35.07L154.995,35.07C154.677,35.07 154.42,34.81 154.42,34.493L154.42,19.78C154.42,19.465 154.677,19.206 154.995,19.206L156.379,19.206C156.697,19.206 156.957,19.465 156.957,19.78L156.957,34.493C156.957,34.81 156.697,35.07 156.379,35.07M156.438,16.666L154.966,16.666C154.649,16.666 154.388,16.406 154.388,16.088L154.388,13.781C154.388,13.464 154.649,13.206 154.966,13.206L156.438,13.206C156.756,13.206 157.014,13.464 157.014,13.781L157.014,16.088C157.014,16.406 156.756,16.666 156.438,16.666" style="fill:rgb(238,49,35);fill-rule:nonzero;"/>
    </g>
    <g transform="matrix(4.16667,0,0,4.16667,0,903.005)">
        <path d="M173.517,15.399C172.192,15.399 170.979,15.744 169.536,16.609L169.536,28.696C169.536,28.985 169.278,29.273 168.96,29.273L167.547,29.273C167.259,29.273 166.998,29.013 166.998,28.696L166.998,13.983C166.998,13.667 167.228,13.409 167.547,13.409L168.902,13.409C169.218,13.409 169.45,13.667 169.45,13.983L169.45,14.589C170.892,13.582 172.22,13.206 173.517,13.206C173.921,13.206 174.123,13.378 174.123,13.725L174.123,14.907C174.123,15.224 173.921,15.399 173.517,15.399" style="fill:rgb(238,49,35);fill-rule:nonzero;"/>
    </g>
    <g transform="matrix(4.16667,0,0,4.16667,0,903.842)">
        <path d="M191.147,21.399L189.012,21.399C185.521,21.399 184.598,22.178 184.598,24.225L184.598,24.571C184.598,26.649 185.58,27.199 187.251,27.199C188.578,27.199 189.762,26.793 191.147,26.043L191.147,21.399ZM193.108,29.072L191.781,29.072C191.464,29.072 191.204,28.812 191.204,28.495L191.204,27.861C189.819,28.667 188.378,29.273 186.761,29.273C184.309,29.273 182.061,28.206 182.061,24.601L182.061,24.254C182.061,21.139 183.878,19.582 189.012,19.582L191.147,19.582L191.147,18.429C191.147,16.005 190.309,15.168 188.06,15.168C186.186,15.168 184.801,15.283 183.646,15.4L183.503,15.4C183.242,15.4 182.984,15.312 182.984,14.938L182.984,13.927C182.984,13.61 183.185,13.437 183.589,13.381C184.771,13.177 186.098,13.005 188.06,13.005C192.07,13.005 193.684,15.023 193.684,18.429L193.684,28.495C193.684,28.812 193.426,29.072 193.108,29.072" style="fill:rgb(238,49,35);fill-rule:nonzero;"/>
    </g>
</svg>
